<?xml version="1.0" encoding="utf-8"?>
<!-- Generator: Adobe Illustrator 25.4.1, SVG Export Plug-In . SVG Version: 6.00 Build 0)  -->
<svg version="1.1" id="Слой_1" xmlns="http://www.w3.org/2000/svg" xmlns:xlink="http://www.w3.org/1999/xlink" x="0px" y="0px"
	 viewBox="0 0 667 250" style="enable-background:new 0 0 667 250;" xml:space="preserve">
<style type="text/css">
	.st0{fill:#666666;}
	.st1{fill:#0000FF;}
	.st2{fill:#808080;}
</style>
<g>
	<g>
		<path class="st0" d="M61.51,163.73v-5.42l10.54-3.51c0.97-0.3,1.76-0.8,2.37-1.49c0.61-0.69,0.92-1.59,0.92-2.71V69.76
			c0-1.12-0.31-2.02-0.92-2.71c-0.61-0.69-1.4-1.16-2.37-1.41l-10.54-3.44v-5.42h51.34c4.43,0,9.18,0.48,14.25,1.45
			c5.07,0.97,10.03,2.65,14.9,5.04c4.86,2.39,9.28,5.64,13.26,9.74c3.97,4.1,7.16,9.22,9.55,15.36c2.39,6.14,3.59,13.48,3.59,22.04
			c0,12.12-2.52,22.12-7.56,29.99s-11.79,13.73-20.25,17.57c-8.46,3.85-17.9,5.77-28.34,5.77H61.51z M98.49,66.7v86.95h14.67
			c10.34,0,17.98-3.58,22.92-10.73c4.94-7.16,7.41-17.2,7.41-30.14c0-9.52-1.41-17.71-4.24-24.56c-2.83-6.85-6.8-12.15-11.92-15.89
			c-5.12-3.74-11.14-5.62-18.07-5.62H98.49z"/>
		<path class="st0" d="M176.72,163.73v-5.27l9.24-3.06c0.97-0.36,1.77-0.85,2.41-1.49c0.64-0.64,0.96-1.52,0.96-2.64v-47.83
			c0-1.22-0.33-2.23-0.99-3.02c-0.66-0.79-1.73-1.46-3.21-2.02l-8.1-3.06v-4.74l34.15-4.66v65.32c0,1.17,0.31,2.08,0.92,2.71
			c0.61,0.64,1.4,1.11,2.37,1.41l8.79,3.06v5.27H176.72z M199.18,72.13c-2.39,0-4.62-0.57-6.69-1.72s-3.73-2.67-5-4.58
			c-1.27-1.91-1.91-4.06-1.91-6.46c0-3.56,1.34-6.51,4.01-8.82c2.67-2.32,5.87-3.48,9.59-3.48c3.97,0,7.31,1.12,10.01,3.36
			c2.7,2.24,4.05,5.12,4.05,8.63c0,2.44-0.66,4.65-1.99,6.61c-1.32,1.96-3.03,3.53-5.12,4.7C204.04,71.54,201.73,72.13,199.18,72.13
			z"/>
		<path class="st0" d="M232.11,160.68v-22.16h8.25l2.67,7.95c0.36,1.12,1.04,2.1,2.06,2.94c1.02,0.84,1.94,1.49,2.75,1.95
			c1.83,1.12,4.39,2.24,7.68,3.36c3.29,1.12,6.53,1.68,9.74,1.68c2.29,0,4.34-0.37,6.15-1.11c1.81-0.74,3.23-1.91,4.28-3.51
			c1.04-1.6,1.57-3.68,1.57-6.23c0-3.36-1.34-5.77-4.01-7.22c-2.67-1.45-5.82-2.66-9.44-3.63c-2.5-0.76-4.85-1.44-7.07-2.03
			c-2.22-0.58-4.34-1.21-6.38-1.87c-5.5-1.63-9.73-4.3-12.68-8.02c-2.95-3.72-4.43-8.3-4.43-13.75c0-4.94,1.55-9.27,4.66-12.99
			c3.11-3.72,7.28-6.62,12.53-8.71c5.25-2.09,11.03-3.13,17.34-3.13c5.04,0,9.4,0.27,13.06,0.8c3.67,0.53,7.72,1.34,12.15,2.41
			l0.84,22.31h-8.4l-3.06-8.02c-0.36-0.97-0.94-1.83-1.76-2.6c-0.82-0.76-1.68-1.4-2.6-1.91c-1.73-0.92-3.88-1.76-6.46-2.52
			c-2.57-0.76-5.16-1.15-7.75-1.15c-2.4,0-4.7,0.78-6.91,2.33c-2.22,1.55-3.32,3.93-3.32,7.14c0,3.46,1.17,5.99,3.51,7.56
			c2.34,1.58,5.09,2.88,8.25,3.9c2.34,0.61,4.62,1.27,6.84,1.99c2.22,0.71,4.11,1.33,5.69,1.83c6.01,1.78,10.78,4.3,14.33,7.56
			c3.54,3.26,5.31,7.77,5.31,13.52c0,6.16-1.73,11.21-5.2,15.13c-3.46,3.92-7.95,6.8-13.45,8.63s-11.38,2.75-17.65,2.75
			c-6.32,0-11.83-0.6-16.54-1.8C239.97,162.88,235.78,161.75,232.11,160.68z"/>
		<path class="st1" d="M364.74,86.87l-1.76,9.78h-25.44v46.76c0,2.14,0.85,3.96,2.56,5.46c1.71,1.5,3.69,2.65,5.96,3.44
			c2.27,0.79,4.21,1.18,5.85,1.18c1.63,0,3.4-0.14,5.31-0.42c1.91-0.28,3.43-0.55,4.55-0.8h2.37v5.88c-1.12,0.61-2.92,1.48-5.39,2.6
			c-2.47,1.12-5.34,2.14-8.6,3.06c-3.26,0.92-6.75,1.38-10.47,1.38c-4.48,0-8.53-0.64-12.15-1.91c-3.62-1.27-6.51-3.12-8.67-5.54
			c-2.17-2.42-3.25-5.31-3.25-8.67V96.65h-12.45V89.7c2.8-0.56,5.22-1.21,7.26-1.95c2.04-0.74,3.67-1.9,4.89-3.48
			c1.22-1.58,1.91-3.95,2.06-7.11l0.53-10.08l19.64-2.98v22.77H364.74z"/>
		<path class="st2" d="M368.41,163.73v-5.27l8.33-2.98c0.92-0.31,1.69-0.79,2.33-1.45c0.63-0.66,0.96-1.55,0.96-2.67v-47.14
			c0-1.63-0.28-2.92-0.84-3.86c-0.56-0.94-1.65-1.69-3.29-2.25l-8.1-2.98v-4.74l33.08-5.42v16.96h0.3c2.14-3.36,4.33-6.35,6.57-8.98
			c2.24-2.62,4.72-4.71,7.45-6.27c2.72-1.55,5.85-2.33,9.36-2.33c2.8,0,5.14,0.26,7.03,0.76c1.88,0.51,3.79,1.22,5.73,2.14v23.84
			h-9.93l-2.9-5.81c-0.46-0.87-1.45-1.68-2.98-2.44c-1.53-0.76-3.08-1.15-4.66-1.15c-1.83,0-3.59,0.18-5.27,0.53
			c-1.68,0.36-3.32,1.04-4.93,2.06c-1.6,1.02-3.2,2.52-4.78,4.51v42.56c0,2.14,1.1,3.51,3.29,4.13l10.24,2.98v5.27H368.41z"/>
		<path class="st2" d="M443.58,163.73v-5.27l9.24-3.06c0.97-0.36,1.77-0.85,2.41-1.49c0.64-0.64,0.96-1.52,0.96-2.64v-47.83
			c0-1.22-0.33-2.23-0.99-3.02c-0.66-0.79-1.73-1.46-3.21-2.02l-8.1-3.06v-4.74l34.15-4.66v65.32c0,1.17,0.31,2.08,0.92,2.71
			c0.61,0.64,1.4,1.11,2.37,1.41l8.79,3.06v5.27H443.58z M466.05,72.13c-2.39,0-4.62-0.57-6.69-1.72c-2.06-1.15-3.73-2.67-5-4.58
			c-1.27-1.91-1.91-4.06-1.91-6.46c0-3.56,1.34-6.51,4.01-8.82c2.67-2.32,5.87-3.48,9.59-3.48c3.97,0,7.31,1.12,10.01,3.36
			c2.7,2.24,4.05,5.12,4.05,8.63c0,2.44-0.66,4.65-1.99,6.61c-1.33,1.96-3.03,3.53-5.12,4.7C470.91,71.54,468.59,72.13,466.05,72.13
			z"/>
		<path class="st2" d="M562.23,145.17h2.6v7.41c-3.57,2.95-8.04,5.84-13.41,8.67c-5.38,2.83-11.53,4.24-18.45,4.24
			c-7.64,0-14.13-1.73-19.48-5.2c-5.35-3.46-9.4-8.1-12.15-13.9c-2.75-5.81-4.12-12.27-4.12-19.41c0-5.76,0.99-11.21,2.98-16.35
			c1.99-5.14,4.86-9.67,8.63-13.56s8.33-6.95,13.68-9.17c5.35-2.22,11.36-3.32,18.03-3.32c3.87,0,7.25,0.36,10.12,1.07
			c2.88,0.71,5.33,1.53,7.37,2.44c2.04,0.92,3.72,1.71,5.04,2.37l-2.22,17.04h-3.59c-2.5-1.83-5.25-3.67-8.25-5.5
			c-3.01-1.83-6.02-3.37-9.05-4.62c-3.03-1.25-5.82-1.87-8.37-1.87c-1.22,0-2.32,0.33-3.29,0.99c-0.97,0.66-2.04,1.76-3.21,3.29
			c-0.76,1.07-1.54,2.67-2.33,4.81c-0.79,2.14-1.45,4.73-1.99,7.75c-0.53,3.03-0.8,6.46-0.8,10.28c0,9.37,1.86,16.63,5.58,21.77
			c3.72,5.15,9.63,7.72,17.73,7.72c2.7,0,5.21-0.38,7.53-1.15c2.32-0.76,4.46-1.68,6.42-2.75
			C559.19,147.15,560.86,146.13,562.23,145.17z"/>
		<path class="st2" d="M628.86,86.87l-1.76,9.78h-25.44v46.76c0,2.14,0.85,3.96,2.56,5.46c1.71,1.5,3.69,2.65,5.96,3.44
			c2.27,0.79,4.21,1.18,5.84,1.18c1.63,0,3.4-0.14,5.31-0.42c1.91-0.28,3.42-0.55,4.55-0.8h2.37v5.88c-1.12,0.61-2.92,1.48-5.39,2.6
			c-2.47,1.12-5.34,2.14-8.6,3.06s-6.75,1.38-10.47,1.38c-4.48,0-8.53-0.64-12.15-1.91c-3.62-1.27-6.51-3.12-8.67-5.54
			c-2.17-2.42-3.25-5.31-3.25-8.67V96.65h-12.45V89.7c2.8-0.56,5.22-1.21,7.26-1.95c2.04-0.74,3.67-1.9,4.89-3.48
			c1.22-1.58,1.91-3.95,2.06-7.11l0.54-10.08l19.64-2.98v22.77H628.86z"/>
	</g>
</g>
</svg>
